<mxfile host="Electron" agent="Mozilla/5.0 (Macintosh; Intel Mac OS X 10_15_7) AppleWebKit/537.36 (KHTML, like Gecko) draw.io/26.2.2 Chrome/134.0.6998.178 Electron/35.1.2 Safari/537.36" version="26.2.2">
  <diagram name="Page-1" id="liuAbpB6uZTPB0a4pdwD">
    <mxGraphModel dx="1828" dy="912" grid="1" gridSize="10" guides="1" tooltips="1" connect="1" arrows="1" fold="1" page="0" pageScale="1" pageWidth="850" pageHeight="1100" math="0" shadow="0">
      <root>
        <mxCell id="0" />
        <mxCell id="1" parent="0" />
        <mxCell id="A9NsG1vWM15PXqbASUl_-1" value="" style="rounded=0;whiteSpace=wrap;html=1;fillColor=none;dashed=1;" parent="1" vertex="1">
          <mxGeometry x="-240" y="230" width="190" height="500" as="geometry" />
        </mxCell>
        <mxCell id="A9NsG1vWM15PXqbASUl_-2" value="Sources" style="rounded=1;whiteSpace=wrap;html=1;fontSize=18;strokeColor=none;" parent="1" vertex="1">
          <mxGeometry x="-205" y="190" width="120" height="60" as="geometry" />
        </mxCell>
        <mxCell id="A9NsG1vWM15PXqbASUl_-20" style="edgeStyle=orthogonalEdgeStyle;rounded=0;orthogonalLoop=1;jettySize=auto;html=1;" parent="1" source="A9NsG1vWM15PXqbASUl_-3" target="A9NsG1vWM15PXqbASUl_-13" edge="1">
          <mxGeometry relative="1" as="geometry" />
        </mxCell>
        <mxCell id="A9NsG1vWM15PXqbASUl_-21" style="edgeStyle=orthogonalEdgeStyle;rounded=0;orthogonalLoop=1;jettySize=auto;html=1;" parent="1" source="A9NsG1vWM15PXqbASUl_-3" target="A9NsG1vWM15PXqbASUl_-10" edge="1">
          <mxGeometry relative="1" as="geometry">
            <Array as="points">
              <mxPoint x="-30" y="410" />
              <mxPoint x="-30" y="360" />
            </Array>
          </mxGeometry>
        </mxCell>
        <mxCell id="A9NsG1vWM15PXqbASUl_-22" style="edgeStyle=orthogonalEdgeStyle;rounded=0;orthogonalLoop=1;jettySize=auto;html=1;entryX=0;entryY=0.5;entryDx=0;entryDy=0;" parent="1" source="A9NsG1vWM15PXqbASUl_-3" target="A9NsG1vWM15PXqbASUl_-14" edge="1">
          <mxGeometry relative="1" as="geometry">
            <Array as="points">
              <mxPoint x="-30" y="410" />
              <mxPoint x="-30" y="460" />
            </Array>
          </mxGeometry>
        </mxCell>
        <mxCell id="A9NsG1vWM15PXqbASUl_-3" value="&lt;b&gt;&lt;font style=&quot;font-size: 16px;&quot;&gt;CRM&lt;/font&gt;&lt;/b&gt;" style="image;aspect=fixed;html=1;points=[];align=center;fontSize=12;image=img/lib/azure2/general/Folder_Blank.svg;" parent="1" vertex="1">
          <mxGeometry x="-179.5" y="382" width="69" height="56.00000000000001" as="geometry" />
        </mxCell>
        <mxCell id="A9NsG1vWM15PXqbASUl_-26" style="edgeStyle=orthogonalEdgeStyle;rounded=0;orthogonalLoop=1;jettySize=auto;html=1;entryX=0;entryY=0.5;entryDx=0;entryDy=0;" parent="1" source="A9NsG1vWM15PXqbASUl_-4" target="A9NsG1vWM15PXqbASUl_-24" edge="1">
          <mxGeometry relative="1" as="geometry" />
        </mxCell>
        <mxCell id="A9NsG1vWM15PXqbASUl_-27" style="edgeStyle=orthogonalEdgeStyle;rounded=0;orthogonalLoop=1;jettySize=auto;html=1;entryX=0;entryY=0.5;entryDx=0;entryDy=0;" parent="1" source="A9NsG1vWM15PXqbASUl_-4" target="A9NsG1vWM15PXqbASUl_-23" edge="1">
          <mxGeometry relative="1" as="geometry" />
        </mxCell>
        <mxCell id="A9NsG1vWM15PXqbASUl_-28" style="edgeStyle=orthogonalEdgeStyle;rounded=0;orthogonalLoop=1;jettySize=auto;html=1;entryX=0;entryY=0.5;entryDx=0;entryDy=0;" parent="1" source="A9NsG1vWM15PXqbASUl_-4" target="A9NsG1vWM15PXqbASUl_-25" edge="1">
          <mxGeometry relative="1" as="geometry" />
        </mxCell>
        <mxCell id="A9NsG1vWM15PXqbASUl_-4" value="&lt;b&gt;&lt;font style=&quot;font-size: 16px;&quot;&gt;ERP&lt;/font&gt;&lt;/b&gt;" style="image;aspect=fixed;html=1;points=[];align=center;fontSize=12;image=img/lib/azure2/general/Folder_Blank.svg;" parent="1" vertex="1">
          <mxGeometry x="-179.5" y="562" width="69" height="56.00000000000001" as="geometry" />
        </mxCell>
        <mxCell id="A9NsG1vWM15PXqbASUl_-8" value="" style="rounded=1;whiteSpace=wrap;html=1;fillStyle=hatch;fillColor=#ffe6cc;strokeColor=#d79b00;" parent="1" vertex="1">
          <mxGeometry x="30" y="300" width="190" height="430" as="geometry" />
        </mxCell>
        <mxCell id="A9NsG1vWM15PXqbASUl_-9" value="&lt;font style=&quot;font-size: 22px;&quot;&gt;Bronze Layer&lt;/font&gt;" style="rounded=1;whiteSpace=wrap;html=1;fillColor=#ffe6cc;strokeColor=#d79b00;fontSize=24;" parent="1" vertex="1">
          <mxGeometry x="30" y="230" width="190" height="60" as="geometry" />
        </mxCell>
        <mxCell id="2ACahSxaMoB5ukm6PUNC-10" style="edgeStyle=orthogonalEdgeStyle;rounded=0;orthogonalLoop=1;jettySize=auto;html=1;exitX=1;exitY=0.5;exitDx=0;exitDy=0;entryX=0;entryY=0.5;entryDx=0;entryDy=0;" parent="1" source="A9NsG1vWM15PXqbASUl_-10" target="2ACahSxaMoB5ukm6PUNC-4" edge="1">
          <mxGeometry relative="1" as="geometry" />
        </mxCell>
        <mxCell id="A9NsG1vWM15PXqbASUl_-10" value="&lt;font&gt;crm_sales_details&lt;/font&gt;" style="rounded=1;whiteSpace=wrap;html=1;fillColor=#ffe6cc;strokeColor=#d79b00;fontSize=16;" parent="1" vertex="1">
          <mxGeometry x="47.5" y="340" width="155" height="40" as="geometry" />
        </mxCell>
        <mxCell id="2ACahSxaMoB5ukm6PUNC-11" style="edgeStyle=orthogonalEdgeStyle;rounded=0;orthogonalLoop=1;jettySize=auto;html=1;exitX=1;exitY=0.5;exitDx=0;exitDy=0;entryX=0;entryY=0.5;entryDx=0;entryDy=0;" parent="1" source="A9NsG1vWM15PXqbASUl_-13" target="2ACahSxaMoB5ukm6PUNC-5" edge="1">
          <mxGeometry relative="1" as="geometry" />
        </mxCell>
        <mxCell id="A9NsG1vWM15PXqbASUl_-13" value="&lt;font&gt;crm_cust_info&lt;/font&gt;" style="rounded=1;whiteSpace=wrap;html=1;fillColor=#ffe6cc;strokeColor=#d79b00;fontSize=16;" parent="1" vertex="1">
          <mxGeometry x="47.5" y="390" width="155" height="40" as="geometry" />
        </mxCell>
        <mxCell id="2ACahSxaMoB5ukm6PUNC-12" style="edgeStyle=orthogonalEdgeStyle;rounded=0;orthogonalLoop=1;jettySize=auto;html=1;exitX=1;exitY=0.5;exitDx=0;exitDy=0;entryX=0;entryY=0.5;entryDx=0;entryDy=0;" parent="1" source="A9NsG1vWM15PXqbASUl_-14" target="2ACahSxaMoB5ukm6PUNC-6" edge="1">
          <mxGeometry relative="1" as="geometry" />
        </mxCell>
        <mxCell id="A9NsG1vWM15PXqbASUl_-14" value="&lt;font&gt;crm_prd_info&lt;/font&gt;" style="rounded=1;whiteSpace=wrap;html=1;fillColor=#ffe6cc;strokeColor=#d79b00;fontSize=16;" parent="1" vertex="1">
          <mxGeometry x="47.5" y="440" width="155" height="40" as="geometry" />
        </mxCell>
        <mxCell id="2ACahSxaMoB5ukm6PUNC-13" style="edgeStyle=orthogonalEdgeStyle;rounded=0;orthogonalLoop=1;jettySize=auto;html=1;exitX=1;exitY=0.5;exitDx=0;exitDy=0;entryX=0;entryY=0.5;entryDx=0;entryDy=0;" parent="1" source="A9NsG1vWM15PXqbASUl_-23" target="2ACahSxaMoB5ukm6PUNC-7" edge="1">
          <mxGeometry relative="1" as="geometry" />
        </mxCell>
        <mxCell id="A9NsG1vWM15PXqbASUl_-23" value="&lt;font&gt;erp_cust_az12&lt;/font&gt;" style="rounded=1;whiteSpace=wrap;html=1;fillColor=#ffe6cc;strokeColor=#d79b00;fontSize=16;" parent="1" vertex="1">
          <mxGeometry x="47.5" y="520" width="155" height="40" as="geometry" />
        </mxCell>
        <mxCell id="2ACahSxaMoB5ukm6PUNC-14" style="edgeStyle=orthogonalEdgeStyle;rounded=0;orthogonalLoop=1;jettySize=auto;html=1;exitX=1;exitY=0.5;exitDx=0;exitDy=0;entryX=0;entryY=0.5;entryDx=0;entryDy=0;" parent="1" source="A9NsG1vWM15PXqbASUl_-24" target="2ACahSxaMoB5ukm6PUNC-8" edge="1">
          <mxGeometry relative="1" as="geometry" />
        </mxCell>
        <mxCell id="A9NsG1vWM15PXqbASUl_-24" value="&lt;font&gt;erp_loc_a101&lt;/font&gt;" style="rounded=1;whiteSpace=wrap;html=1;fillColor=#ffe6cc;strokeColor=#d79b00;fontSize=16;" parent="1" vertex="1">
          <mxGeometry x="47.5" y="570" width="155" height="40" as="geometry" />
        </mxCell>
        <mxCell id="2ACahSxaMoB5ukm6PUNC-15" style="edgeStyle=orthogonalEdgeStyle;rounded=0;orthogonalLoop=1;jettySize=auto;html=1;exitX=1;exitY=0.5;exitDx=0;exitDy=0;" parent="1" source="A9NsG1vWM15PXqbASUl_-25" target="2ACahSxaMoB5ukm6PUNC-9" edge="1">
          <mxGeometry relative="1" as="geometry" />
        </mxCell>
        <mxCell id="A9NsG1vWM15PXqbASUl_-25" value="&lt;font&gt;erp_px_cat_g1v2&lt;/font&gt;" style="rounded=1;whiteSpace=wrap;html=1;fillColor=#ffe6cc;strokeColor=#d79b00;fontSize=16;" parent="1" vertex="1">
          <mxGeometry x="47.5" y="620" width="155" height="40" as="geometry" />
        </mxCell>
        <mxCell id="2ACahSxaMoB5ukm6PUNC-2" value="" style="rounded=1;whiteSpace=wrap;html=1;fillStyle=hatch;fillColor=#f5f5f5;strokeColor=#666666;fontColor=#333333;" parent="1" vertex="1">
          <mxGeometry x="280" y="300" width="190" height="430" as="geometry" />
        </mxCell>
        <mxCell id="2ACahSxaMoB5ukm6PUNC-3" value="&lt;font style=&quot;font-size: 22px;&quot;&gt;Silver Layer&lt;/font&gt;" style="rounded=1;whiteSpace=wrap;html=1;fillColor=#f5f5f5;strokeColor=#666666;fontSize=24;fontColor=#333333;" parent="1" vertex="1">
          <mxGeometry x="280" y="230" width="190" height="60" as="geometry" />
        </mxCell>
        <mxCell id="2ACahSxaMoB5ukm6PUNC-4" value="&lt;font&gt;crm_sales_details&lt;/font&gt;" style="rounded=1;whiteSpace=wrap;html=1;fillColor=#f5f5f5;strokeColor=#666666;fontSize=16;fontColor=#333333;" parent="1" vertex="1">
          <mxGeometry x="297.5" y="340" width="155" height="40" as="geometry" />
        </mxCell>
        <mxCell id="2ACahSxaMoB5ukm6PUNC-5" value="&lt;font&gt;crm_cust_info&lt;/font&gt;" style="rounded=1;whiteSpace=wrap;html=1;fillColor=#f5f5f5;strokeColor=#666666;fontSize=16;fontColor=#333333;" parent="1" vertex="1">
          <mxGeometry x="297.5" y="390" width="155" height="40" as="geometry" />
        </mxCell>
        <mxCell id="2ACahSxaMoB5ukm6PUNC-6" value="&lt;font&gt;crm_prd_info&lt;/font&gt;" style="rounded=1;whiteSpace=wrap;html=1;fillColor=#f5f5f5;strokeColor=#666666;fontSize=16;fontColor=#333333;" parent="1" vertex="1">
          <mxGeometry x="297.5" y="440" width="155" height="40" as="geometry" />
        </mxCell>
        <mxCell id="2ACahSxaMoB5ukm6PUNC-7" value="&lt;span style=&quot;color: rgb(0, 0, 0);&quot;&gt;erp_cust_az12&lt;/span&gt;" style="rounded=1;whiteSpace=wrap;html=1;fillColor=#f5f5f5;strokeColor=#666666;fontSize=16;fontColor=#333333;" parent="1" vertex="1">
          <mxGeometry x="297.5" y="520" width="155" height="40" as="geometry" />
        </mxCell>
        <mxCell id="2ACahSxaMoB5ukm6PUNC-8" value="&lt;span style=&quot;color: rgb(0, 0, 0);&quot;&gt;erp_loc_a101&lt;/span&gt;" style="rounded=1;whiteSpace=wrap;html=1;fillColor=#f5f5f5;strokeColor=#666666;fontSize=16;fontColor=#333333;" parent="1" vertex="1">
          <mxGeometry x="297.5" y="570" width="155" height="40" as="geometry" />
        </mxCell>
        <mxCell id="2ACahSxaMoB5ukm6PUNC-9" value="&lt;span style=&quot;color: rgb(0, 0, 0);&quot;&gt;erp_px_cat_g1v2&lt;/span&gt;" style="rounded=1;whiteSpace=wrap;html=1;fillColor=#f5f5f5;strokeColor=#666666;fontSize=16;fontColor=#333333;" parent="1" vertex="1">
          <mxGeometry x="297.5" y="620" width="155" height="40" as="geometry" />
        </mxCell>
        <mxCell id="rEyV63-aJ9Ua1URXeicN-1" value="" style="rounded=1;whiteSpace=wrap;html=1;fillStyle=hatch;fillColor=#fff2cc;strokeColor=#d6b656;" vertex="1" parent="1">
          <mxGeometry x="530" y="300" width="190" height="430" as="geometry" />
        </mxCell>
        <mxCell id="rEyV63-aJ9Ua1URXeicN-2" value="&lt;font style=&quot;font-size: 22px;&quot;&gt;Gold Layer&lt;/font&gt;" style="rounded=1;whiteSpace=wrap;html=1;fillColor=#fff2cc;strokeColor=#d6b656;fontSize=24;" vertex="1" parent="1">
          <mxGeometry x="530" y="230" width="190" height="60" as="geometry" />
        </mxCell>
        <mxCell id="rEyV63-aJ9Ua1URXeicN-3" value="&lt;font&gt;fact_sales&lt;/font&gt;" style="rounded=1;whiteSpace=wrap;html=1;fillColor=#fff2cc;strokeColor=#d6b656;fontSize=16;" vertex="1" parent="1">
          <mxGeometry x="547.5" y="370" width="155" height="40" as="geometry" />
        </mxCell>
        <mxCell id="rEyV63-aJ9Ua1URXeicN-4" value="&lt;font&gt;dim_customers&lt;/font&gt;" style="rounded=1;whiteSpace=wrap;html=1;fillColor=#fff2cc;strokeColor=#d6b656;fontSize=16;" vertex="1" parent="1">
          <mxGeometry x="547.5" y="460" width="155" height="40" as="geometry" />
        </mxCell>
        <mxCell id="rEyV63-aJ9Ua1URXeicN-5" value="&lt;font&gt;dim_products&lt;/font&gt;" style="rounded=1;whiteSpace=wrap;html=1;fillColor=#fff2cc;strokeColor=#d6b656;fontSize=16;" vertex="1" parent="1">
          <mxGeometry x="547.5" y="550" width="155" height="40" as="geometry" />
        </mxCell>
        <mxCell id="rEyV63-aJ9Ua1URXeicN-9" value="" style="endArrow=classic;html=1;rounded=0;entryX=0;entryY=0.5;entryDx=0;entryDy=0;jumpStyle=gap;" edge="1" parent="1" target="rEyV63-aJ9Ua1URXeicN-4">
          <mxGeometry width="50" height="50" relative="1" as="geometry">
            <mxPoint x="452.5" y="540" as="sourcePoint" />
            <mxPoint x="502.5" y="490" as="targetPoint" />
          </mxGeometry>
        </mxCell>
        <mxCell id="rEyV63-aJ9Ua1URXeicN-10" value="" style="endArrow=classic;html=1;rounded=0;exitX=1;exitY=0.5;exitDx=0;exitDy=0;entryX=0;entryY=0.5;entryDx=0;entryDy=0;" edge="1" parent="1" source="2ACahSxaMoB5ukm6PUNC-4" target="rEyV63-aJ9Ua1URXeicN-3">
          <mxGeometry width="50" height="50" relative="1" as="geometry">
            <mxPoint x="490" y="440" as="sourcePoint" />
            <mxPoint x="540" y="390" as="targetPoint" />
          </mxGeometry>
        </mxCell>
        <mxCell id="rEyV63-aJ9Ua1URXeicN-11" value="" style="endArrow=classic;html=1;rounded=0;entryX=0;entryY=0.5;entryDx=0;entryDy=0;jumpStyle=gap;" edge="1" parent="1" target="rEyV63-aJ9Ua1URXeicN-4">
          <mxGeometry width="50" height="50" relative="1" as="geometry">
            <mxPoint x="452.5" y="410" as="sourcePoint" />
            <mxPoint x="502.5" y="360" as="targetPoint" />
          </mxGeometry>
        </mxCell>
        <mxCell id="rEyV63-aJ9Ua1URXeicN-12" value="" style="endArrow=classic;html=1;rounded=0;entryX=0;entryY=0.5;entryDx=0;entryDy=0;exitX=1;exitY=0.5;exitDx=0;exitDy=0;jumpStyle=gap;" edge="1" parent="1" source="2ACahSxaMoB5ukm6PUNC-6" target="rEyV63-aJ9Ua1URXeicN-5">
          <mxGeometry width="50" height="50" relative="1" as="geometry">
            <mxPoint x="450" y="460" as="sourcePoint" />
            <mxPoint x="547.5" y="530" as="targetPoint" />
          </mxGeometry>
        </mxCell>
        <mxCell id="rEyV63-aJ9Ua1URXeicN-13" value="" style="endArrow=classic;html=1;rounded=0;entryX=0;entryY=0.5;entryDx=0;entryDy=0;exitX=1;exitY=0.5;exitDx=0;exitDy=0;jumpStyle=gap;" edge="1" parent="1" source="2ACahSxaMoB5ukm6PUNC-8" target="rEyV63-aJ9Ua1URXeicN-4">
          <mxGeometry width="50" height="50" relative="1" as="geometry">
            <mxPoint x="472.5" y="430" as="sourcePoint" />
            <mxPoint x="568" y="500" as="targetPoint" />
          </mxGeometry>
        </mxCell>
        <mxCell id="rEyV63-aJ9Ua1URXeicN-14" value="" style="endArrow=classic;html=1;rounded=0;entryX=0;entryY=0.5;entryDx=0;entryDy=0;exitX=1;exitY=0.5;exitDx=0;exitDy=0;jumpStyle=gap;" edge="1" parent="1" source="2ACahSxaMoB5ukm6PUNC-9" target="rEyV63-aJ9Ua1URXeicN-5">
          <mxGeometry width="50" height="50" relative="1" as="geometry">
            <mxPoint x="482.5" y="440" as="sourcePoint" />
            <mxPoint x="578" y="510" as="targetPoint" />
          </mxGeometry>
        </mxCell>
      </root>
    </mxGraphModel>
  </diagram>
</mxfile>
